# xmcd CD database file
#
# Track frame offsets:
#	150
#	20089
#	37653
#	50641
#	73753
#	93520
#	105713
#	115217
#	118172
#	128098
#	137596
#	158684
#	164834
#	180266
#	242865
#
# Disc length: 3290 seconds
#
# Revision: 0
# Processed by: cddbd v1.5.1PL2 Copyright (c) Steve Scherf et al.
# Submitted via: CDex 1.51
#
DISCID=ce0cd80f
DTITLE=And Did Those Feet - Forgetting the shadows of history
DYEAR=2006
DGENRE=New Age
TTITLE0=Dream Of The Mountains
TTITLE1=Hope For Thee
TTITLE2=Mil Harddach Wyt
TTITLE3=Aching Light
TTITLE4=Who Fills These Eyes?
TTITLE5=The Way Of The Rose
TTITLE6=One Guarantee
TTITLE7=The Myth Of Electricity (part 1)
TTITLE8=Reverence
TTITLE9=The Myth Of Electricity (part 2)
TTITLE10=Distant Tears
TTITLE11=Residuals
TTITLE12=Always Island
TTITLE13=Angelus
TTITLE14=Poem - To A Dandelion
EXTD=YEAR: 2006
EXTT0=
EXTT1=
EXTT2=
EXTT3=
EXTT4=
EXTT5=
EXTT6=
EXTT7=
EXTT8=
EXTT9=
EXTT10=
EXTT11=
EXTT12=
EXTT13=
EXTT14=
PLAYORDER=
